# xmcd
#
# Track frame offsets:
#	150
#	22328
#	34014
#	46475
#	61388
#	87563
#	106875
#	127504
#	148344
#	166758
#	182222
#
# Disc length: 2710 seconds
#
# Revision: 1
# Processed by: cddbd v1.5.2PL0 Copyright (c) Steve Scherf et al.
# Submitted via: audiograbber 1.83.01
#
DISCID=960a940b
DTITLE=Kylesa - Exhausting Fire
DYEAR=2015
DGENRE=Metal
TTITLE0=Crusher
TTITLE1=Inward Debate
TTITLE2=Moving Day
TTITLE3=Lost and Confused
TTITLE4=Shaping the Southern Sky
TTITLE5=Falling
TTITLE6=Night Drive
TTITLE7=Blood Moon
TTITLE8=Growing Roots
TTITLE9=Out of My Mind
TTITLE10=Paranoid
EXTD=
EXTT0=
EXTT1=
EXTT2=
EXTT3=
EXTT4=
EXTT5=
EXTT6=
EXTT7=
EXTT8=
EXTT9=
EXTT10=
PLAYORDER=
